<svg width="14" height="13" viewBox="0 0 14 13" fill="none" xmlns="http://www.w3.org/2000/svg">
<path d="M7.07504 12.8501C3.69221 12.8501 0.950043 10.1079 0.950043 6.72506C0.950043 3.98228 2.75263 1.66091 5.23754 0.880584V2.18153C4.18461 2.60909 3.31294 3.38921 2.77165 4.38844C2.23036 5.38768 2.05308 6.54395 2.27014 7.65946C2.48719 8.77497 3.08509 9.7804 3.96156 10.5038C4.83803 11.2271 5.93861 11.6235 7.07504 11.6251C8.05123 11.625 9.00518 11.3335 9.81466 10.7879C10.6241 10.2423 11.2523 9.46742 11.6186 8.56256H12.9195C12.1392 11.0475 9.81782 12.8501 7.07504 12.8501ZM13.1694 7.33756H6.46254V0.630684C6.66406 0.610472 6.86863 0.60006 7.07504 0.60006C10.4579 0.60006 13.2 3.34222 13.2 6.72506C13.2 6.93147 13.1896 7.13605 13.1694 7.33756ZM7.68754 1.86303V6.11256H11.9371C11.8007 5.03309 11.3092 4.02965 10.5398 3.26029C9.77045 2.49093 8.76701 1.99937 7.68754 1.86303Z" fill="#959595"/>
</svg>
