<svg width="14" height="13" viewBox="0 0 14 13" fill="none" xmlns="http://www.w3.org/2000/svg">
<path d="M11.3624 12.1376H2.78743C2.62499 12.1376 2.4692 12.073 2.35433 11.9582C2.23946 11.8433 2.17493 11.6875 2.17493 11.5251V6.01257H0.337433L6.66272 0.26242C6.77549 0.159813 6.92247 0.102951 7.07493 0.102951C7.2274 0.102951 7.37438 0.159813 7.48715 0.26242L13.8124 6.01257H11.9749V11.5251C11.9749 11.6875 11.9104 11.8433 11.7955 11.9582C11.6807 12.073 11.5249 12.1376 11.3624 12.1376ZM3.39993 10.9126H10.7499V4.88373L7.07493 1.54316L3.39993 4.88373V10.9126ZM7.07493 8.46257C6.66882 8.46257 6.27934 8.30124 5.99218 8.01408C5.70501 7.72691 5.54368 7.33743 5.54368 6.93132C5.54368 6.52521 5.70501 6.13573 5.99218 5.84856C6.27934 5.5614 6.66882 5.40007 7.07493 5.40007C7.48105 5.40007 7.87052 5.5614 8.15769 5.84856C8.44486 6.13573 8.60618 6.52521 8.60618 6.93132C8.60618 7.33743 8.44486 7.72691 8.15769 8.01408C7.87052 8.30124 7.48105 8.46257 7.07493 8.46257Z" fill="#959595"/>
</svg>
