<svg width="14" height="13" viewBox="0 0 14 13" fill="none" xmlns="http://www.w3.org/2000/svg">
<path d="M4.01254 2.53744V0.699941C4.01254 0.537495 4.07707 0.381704 4.19194 0.266838C4.30681 0.151972 4.4626 0.0874405 4.62504 0.0874405H9.52504C9.68749 0.0874405 9.84328 0.151972 9.95815 0.266838C10.073 0.381704 10.1375 0.537495 10.1375 0.699941V2.53744H12.5875C12.75 2.53744 12.9058 2.60197 13.0206 2.71684C13.1355 2.8317 13.2 2.9875 13.2 3.14994V11.7249C13.2 11.8874 13.1355 12.0432 13.0206 12.158C12.9058 12.2729 12.75 12.3374 12.5875 12.3374H1.56254C1.4001 12.3374 1.24431 12.2729 1.12944 12.158C1.01457 12.0432 0.950043 11.8874 0.950043 11.7249V3.14994C0.950043 2.9875 1.01457 2.8317 1.12944 2.71684C1.24431 2.60197 1.4001 2.53744 1.56254 2.53744H4.01254ZM5.23754 7.43744H2.17504V11.1124H11.975V7.43744H8.91254V9.27494H5.23754V7.43744ZM11.975 3.76244H2.17504V6.21244H5.23754V4.98744H8.91254V6.21244H11.975V3.76244ZM6.46254 6.21244V8.04994H7.68754V6.21244H6.46254ZM5.23754 1.31244V2.53744H8.91254V1.31244H5.23754Z" fill="#959595"/>
</svg>
